<svg id="Layer_1" fill="#28a745" enable-background="new 0 0 511.914 511.914" height="512" viewBox="0 0 511.914 511.914" width="512" xmlns="http://www.w3.org/2000/svg"><path d="m231.02 153.01c-33.084 0-60 26.916-60 60 3.296 79.598 116.716 79.575 120 0 0-33.084-26.916-60-60-60zm0 80c-11.028 0-20-8.972-20-20 1.099-26.533 38.905-26.525 40 0 0 11.028-8.972 20-20 20zm-141.352 171.241c.003-.002.007-.004.011-.006.001 0-.041.024-.011.006zm370.169-230.32c-4.288 15.456-14.358 28.311-28.357 36.198 0 0-5.229 2.881-8.266 7.979-1.732 2.909-2.182 6.449-1.689 9.853 2.137 14.755 2.557 29.915 1.256 44.788-.959 11.004-10.65 19.154-21.663 18.185-11.004-.96-19.146-10.659-18.185-21.663 1.033-11.81.701-23.871-.996-35.581-3.313-22.894 8.106-46.028 28.419-57.563 0 0 8.51-4.655 10.938-12.888 1.499-5.083.753-10.459-1.867-15.073-7.121-12.171-20.634-11.915-29.111-6.586-20.478 11.627-45.7 9.538-64.264-5.323-11.805-9.451-24.88-17.072-38.863-22.652-21.971-8.767-36.168-29.646-36.168-53.192 0-11.028-8.972-20.402-20-20.402s-20 8.972-20 20c0 23.676-14.305 44.598-36.442 53.3-14.137 5.557-27.357 13.198-39.297 22.709-18.541 14.773-43.727 16.821-64.162 5.215-11.33-6.686-23.049-2.677-28.505 6.93-2.62 4.615-3.283 9.968-1.866 15.074 1.425 5.136 5.166 9.632 9.834 12.262 20.451 11.615 31.93 34.908 28.556 57.958-2.109 14.389-2.153 29.29-.133 43.691 3.246 23.201-7.917 45.726-28.441 57.382-4.707 2.652-8.391 7.116-9.815 12.252-1.417 5.106-.754 10.459 1.866 15.073 5.456 9.607 17.756 12.994 27.417 7.548 20.578-11.652 45.886-9.553 64.403 5.416 12.176 9.842 25.701 17.719 40.201 23.412 22.104 8.68 36.385 29.592 36.385 53.276 0 11.028 8.972 20.502 20 20.502s20-8.972 20-20v-12c1.056-26.536 38.953-26.516 40 0v12c-3.604 79.956-116.628 79.419-120-.502 0-7.121-4.319-13.419-11.005-16.044-18.305-7.188-35.372-17.125-50.727-29.537-5.653-4.57-13.417-5.191-19.609-1.682 0 0-.003.002-.011.006-28.292 16.088-65.439 6.348-81.838-22.644-16.521-27.747-5.723-66.455 22.729-81.717 6.058-3.44 9.775-10.448 8.831-17.199-2.545-18.155-2.49-36.886.169-55.025 1.004-6.863-2.834-14.036-9.064-17.574-13.936-7.852-24.007-20.708-28.295-36.163-4.279-15.426-2.28-31.591 5.628-45.517 16.309-28.723 53.023-38.879 81.835-22.646 4.731 3.187 13.751 4.737 20.69-1.034 15.058-11.996 31.741-21.635 49.587-28.65 6.729-2.646 11.077-8.955 11.077-16.074 0-33.084 26.916-60 60-60s60 27.318 60 60.402c0 7.08 4.314 13.376 10.992 16.041 17.651 7.043 34.15 16.658 49.038 28.577 3.386 2.71 7.459 3.972 11.498 3.972 4.164 0 9.767-3.201 9.767-3.201 28.872-16.268 65.585-6.111 81.895 22.613 7.908 13.926 9.907 30.092 5.628 45.518zm-162.355 144.288c8.169 7.435 8.764 20.084 1.329 28.253-7.453 8.186-20.107 8.748-28.253 1.329-9.062-8.248-20.85-12.791-33.188-12.791h-12.7c-12.339 0-24.126 4.543-33.188 12.791-8.169 7.435-20.819 6.839-28.253-1.329-7.435-8.169-6.84-20.818 1.329-28.253 16.443-14.967 37.792-23.209 60.112-23.209h12.699c22.321 0 43.669 8.242 60.113 23.209zm194.538 78.791h-55v-55c-1.056-26.536-38.953-26.516-40 0v55h-55c-26.536 1.056-26.516 38.953 0 40h55v55c1.056 26.536 38.953 26.516 40 0v-55h55c26.536-1.056 26.516-38.954 0-40z"/></svg>