<svg fill="#e48257" height="512" viewBox="0 0 512 512" width="512" xmlns="http://www.w3.org/2000/svg"><g><path d="m484 136h-12v-88a8 8 0 0 0 -8-8h-416a8 8 0 0 0 -8 8v24h-12a20.02 20.02 0 0 0 -20 20v360a20.02 20.02 0 0 0 20 20h456a20.02 20.02 0 0 0 20-20v-296a20.02 20.02 0 0 0 -20-20zm-428-80h400v80h-243.06l-29.78-59.58a8.011 8.011 0 0 0 -7.16-4.42h-120zm432 396a4 4 0 0 1 -4 4h-456a4 4 0 0 1 -4-4v-360a4 4 0 0 1 4-4h143.06l29.78 59.58a8.011 8.011 0 0 0 7.16 4.42h276a4 4 0 0 1 4 4z"/><path d="m256 184a120 120 0 1 0 120 120 120.136 120.136 0 0 0 -120-120zm0 224a104 104 0 1 1 104-104 104.118 104.118 0 0 1 -104 104z"/><path d="m314.343 266.343-74.937 74.937-34.406-27.527a8 8 0 1 0 -10 12.494l40 32a8 8 0 0 0 10.655-.59l80-80a8 8 0 0 0 -11.314-11.314z"/></g></svg>
