<svg id="Layer_1" fill="#e48257"
height="512" viewBox="0 0 128 128" width="512" xmlns="http://www.w3.org/2000/svg" data-name="Layer 1"><path d="m78.761 51.236a12.211 12.211 0 1 0 -12.21-12.21 12.224 12.224 0 0 0 12.21 12.21zm0-20.921a8.711 8.711 0 1 1 -8.71 8.711 8.72 8.72 0 0 1 8.71-8.712z"/><path d="m112.5 110.75h-19.1v-39.186l5.127 2.716a1.75 1.75 0 0 0 1.639-3.093l-11.282-5.974c6.866-7.406 15.152-18.031 15.152-26.188a25.275 25.275 0 1 0 -50.55 0c0 4.587 2.626 9.956 6.142 15.095l-31.8 17.063a1.75 1.75 0 1 0 1.655 3.084l5.082-2.727v39.21h-19.065a1.75 1.75 0 0 0 0 3.5h97a1.75 1.75 0 0 0 0-3.5zm-33.739-93.5a21.8 21.8 0 0 1 21.775 21.775c0 4.88-3.911 11.987-11.312 20.553a140.4 140.4 0 0 1 -10.463 10.791 140.587 140.587 0 0 1 -10.461-10.791c-7.4-8.565-11.311-15.673-11.311-20.553a21.8 21.8 0 0 1 21.772-21.775zm-40.693 52.411 23.624-12.676a131.088 131.088 0 0 0 15.908 17.063 1.75 1.75 0 0 0 2.313 0c.321-.283 3-2.662 6.46-6.2l3.527 1.862v41.04h-14.711v-17.9a1.75 1.75 0 0 0 -1.75-1.75h-18.915a1.75 1.75 0 0 0 -1.75 1.75v17.9h-14.706zm33.621 41.089h-15.415v-16.15h15.415z"/></svg>
