<?xml version="1.0" standalone="no"?>
<!DOCTYPE svg PUBLIC "-//W3C//DTD SVG 20010904//EN"
 "http://www.w3.org/TR/2001/REC-SVG-20010904/DTD/svg10.dtd">
<svg version="1.0" xmlns="http://www.w3.org/2000/svg"
 width="512.000000pt" height="512.000000pt" viewBox="0 0 512.000000 512.000000"
 preserveAspectRatio="xMidYMid meet">

<g transform="translate(0.000000,512.000000) scale(0.100000,-0.100000)"
fill="#e48257  " stroke="none">
<path d="M1675 5006 l-1570 -111 -3 -35 c-3 -37 294 -4270 300 -4275 2 -1 80
4 173 11 94 7 191 13 218 13 l47 1 0 -305 0 -305 1610 0 1610 0 0 175 c0 142
3 175 14 175 7 0 118 -11 246 -25 128 -14 235 -23 238 -21 7 8 467 4284 461
4289 -2 2 -371 43 -819 91 -448 48 -827 89 -841 92 -25 5 -27 8 -33 90 -3 46
-9 122 -12 169 l-7 85 -31 -1 c-17 -1 -737 -51 -1601 -113z m1355 -223 c0 -10
7 -101 15 -203 8 -102 15 -202 15 -222 l0 -38 -1110 0 -1110 0 -2 -1702 -3
-1703 -75 -5 c-41 -3 -77 -5 -79 -3 -6 4 -266 3702 -260 3706 3 3 2488 182
2582 186 19 1 27 -4 27 -16z m1006 -383 c356 -38 649 -72 652 -75 4 -4 -388
-3685 -393 -3693 -1 -1 -55 3 -119 10 l-116 12 0 1833 0 1833 -350 0 -350 0 0
59 c0 33 -3 66 -6 75 -4 11 0 16 14 16 12 0 312 -31 668 -70z m-276 -2240 l0
-1860 -1310 0 -1310 0 0 1860 0 1860 1310 0 1310 0 0 -1860z"/>
<path d="M2325 3702 c-149 -50 -262 -134 -344 -257 -182 -272 -149 -615 80
-844 263 -263 675 -263 938 0 230 229 262 572 79 845 -81 122 -205 213 -351
259 -65 21 -98 25 -200 25 -106 0 -132 -4 -202 -28z m368 -67 c239 -73 403
-277 423 -527 18 -224 -115 -458 -319 -558 -184 -91 -350 -91 -534 0 -204 100
-337 334 -319 558 23 281 220 494 506 546 44 8 193 -3 243 -19z"/>
<path d="M2322 3438 c-9 -9 -12 -105 -12 -370 0 -348 1 -358 20 -368 11 -6 27
-7 34 -3 59 34 486 352 489 364 3 9 2 21 -2 27 -10 16 -492 362 -505 362 -7 0
-17 -5 -24 -12z m418 -367 c0 -4 -12 -16 -27 -27 -16 -11 -94 -69 -175 -127
l-148 -107 0 260 0 260 175 -126 c96 -70 175 -129 175 -133z"/>
<path d="M1880 1760 l0 -100 645 0 645 0 0 100 0 100 -645 0 -645 0 0 -100z"/>
<path d="M1880 1410 l0 -100 645 0 645 0 0 100 0 100 -645 0 -645 0 0 -100z"/>
<path d="M1880 1060 l0 -100 645 0 645 0 0 100 0 100 -645 0 -645 0 0 -100z"/>
</g>
</svg>
