<svg fill="#e48257" height="511pt" viewBox="0 0 511.99948 511" width="511pt" xmlns="http://www.w3.org/2000/svg"><path d="m47.988281 321.828125c0 5.519531 4.476563 10 10 10h167.996094c5.523437 0 10-4.480469 10-10v-48c0-5.523437-4.476563-10-10-10h-167.996094c-5.523437 0-10 4.476563-10 10zm20-38h147.996094v28h-147.996094zm0 0"/><path d="m57.988281 379.824219h167.996094c5.523437 0 10-4.476563 10-10 0-5.523438-4.476563-10-10-10h-167.996094c-5.523437 0-10 4.476562-10 10 0 5.523437 4.476563 10 10 10zm0 0"/><path d="m57.988281 427.824219h123.007813c5.523437 0 10-4.476563 10-10 0-5.523438-4.476563-10-10-10h-123.007813c-5.523437 0-10 4.476562-10 10 0 5.523437 4.476563 10 10 10zm0 0"/><path d="m63.726562 97.90625c1.875 1.875 4.421876 2.925781 7.070313 2.925781 2.652344 0 5.199219-1.050781 7.074219-2.925781l26.332031-26.335938c3.90625-3.90625 3.90625-10.238281 0-14.144531-3.902344-3.902343-10.234375-3.902343-14.140625 0l-19.265625 19.265625-5.738281-5.738281c-3.90625-3.90625-10.238282-3.90625-14.144532 0-3.902343 3.902344-3.902343 10.234375 0 14.140625zm0 0"/><path d="m134.996094 87.667969h41c5.523437 0 10-4.480469 10-10 0-5.523438-4.476563-10-10-10h-41c-5.523438 0-10 4.476562-10 10 0 5.519531 4.476562 10 10 10zm0 0"/><path d="m50.917969 148.925781 12.808593 12.8125c1.875 1.875 4.421876 2.929688 7.070313 2.929688 2.652344 0 5.199219-1.054688 7.074219-2.929688l26.332031-26.335937c3.90625-3.90625 3.90625-10.238282 0-14.140625-3.902344-3.90625-10.234375-3.90625-14.140625 0l-19.265625 19.261719-5.738281-5.738282c-3.90625-3.90625-10.238282-3.90625-14.144532 0-3.902343 3.90625-3.902343 10.238282.003907 14.140625zm0 0"/><path d="m134.996094 151.5h41c5.523437 0 10-4.476562 10-10s-4.476563-10-10-10h-41c-5.523438 0-10 4.476562-10 10s4.476562 10 10 10zm0 0"/><path d="m50.917969 212.757812 12.808593 12.8125c1.875 1.875 4.421876 2.929688 7.070313 2.929688 2.652344 0 5.199219-1.054688 7.074219-2.929688l26.332031-26.335937c3.90625-3.90625 3.90625-10.234375 0-14.140625-3.902344-3.90625-10.234375-3.90625-14.140625 0l-19.265625 19.265625-5.738281-5.742187c-3.90625-3.902344-10.238282-3.902344-14.144532 0-3.902343 3.90625-3.902343 10.238281.003907 14.140624zm0 0"/><path d="m134.996094 215.332031h20.5c5.523437 0 10-4.476562 10-10 0-5.523437-4.476563-10-10-10h-20.5c-5.523438 0-10 4.476563-10 10 0 5.523438 4.476562 10 10 10zm0 0"/><path d="m510.941406 156.640625c-2.125-7.921875-7.207031-14.546875-14.308594-18.648437l-8.046874-4.644532 9.914062-17.175781c3.621094-6.265625 4.582031-13.570313 2.707031-20.5625-1.871093-6.988281-6.355469-12.832031-12.625-16.449219l-25.8125-14.90625c-6.265625-3.617187-13.570312-4.578125-20.558593-2.707031-6.992188 1.875-12.835938 6.359375-16.453126 12.625l-15 25.984375h-.003906v.003906l-18.761718 32.496094v-102.15625c0-16.542969-13.457032-30-30-30h-331.992188c-16.542969 0-30 13.457031-30 30v171.996094c0 5.523437 4.476562 10 10 10s10-4.476563 10-10v-171.996094c0-5.515625 4.484375-10 10-10h331.992188c5.515624 0 10 4.484375 10 10v136.796875l-28.109376 48.6875v-8.828125c0-28.972656-19.394531-53.492188-45.875-61.289062 4.667969-6.351563 7.429688-13.980469 7.429688-22.089844v-32.113282c0-23.15625-18.839844-41.996093-41.996094-41.996093-23.160156 0-42 18.839843-42 41.996093v10.363282c0 .316406.019532.628906.046875.9375-.03125.308594-.046875.617187-.046875.933594v17.367187c0 9.125 2.933594 17.574219 7.898438 24.46875-26.722656 7.648437-46.34375 32.277344-46.34375 61.421875v11.34375c0 5.523438 4.476562 10 10 10h140.886718c1.066407 0 2.089844-.171875 3.050782-.480469l-104.839844 181.59375c-.636719 1.097657-1.027344 2.265625-1.210938 3.449219-.003906 0-.007812 0-.011718 0l-8.066406 51.429688h-192.804688c-5.515625 0-10-4.488282-10-10v-171.996094c0-5.523438-4.476562-10-10-10s-10 4.476562-10 10v171.996094c0 16.539062 13.457031 30 30 30h189.667969l-2.582031 16.449218c-.640626 4.082032 1.296874 8.140625 4.878906 10.207032 1.554687.898437 3.28125 1.339843 5 1.339843 2.238281 0 4.460937-.75 6.28125-2.21875l31.933594-25.777343h96.8125c16.542968 0 30-13.460938 30-30v-153.839844l86.59375-149.984375 8.046874 4.644531c2.476563 1.429688 4.25 3.738281 4.988282 6.5.742187 2.765625.359375 5.648438-1.070313 8.125l-60.097656 104.097656c-2.761719 4.785156-1.125 10.898438 3.660156 13.660156 1.574219.910157 3.292969 1.339844 4.988281 1.339844 3.457032 0 6.816407-1.792968 8.667969-5l60.101563-104.097656c4.101562-7.101562 5.191406-15.375 3.070312-23.296875zm-269.503906-35.378906v-9.234375h17.765625c9.269531 0 18.316406-2.484375 26.234375-6.988282v18.738282c0 9.199218-9.40625 19.484375-22 19.484375-12.128906 0-22-9.867188-22-22zm0-29.597657c0-12.128906 9.871094-21.996093 22-21.996093 8.585938 0 16.039062 4.941406 19.660156 12.132812-6.1875 6.457031-14.871094 10.226563-23.894531 10.226563h-17.765625zm82.445312 116.835938h-120.886718v-1.34375c0-24.203125 19.691406-43.894531 43.894531-43.894531h33.097656c24.203125 0 43.894531 19.691406 43.894531 43.894531zm69.742188 49.328125-38.105469-22 67.554688-117.011719 38.105469 22zm49.453125-173.65625c.945313-1.640625 2.476563-2.816406 4.308594-3.304687 1.832031-.492188 3.742187-.238282 5.382812.707031l25.8125 14.902343c1.644531.949219 2.816407 2.480469 3.308594 4.308594.492187 1.832032.238281 3.746094-.710937 5.386719l-10 17.324219-38.105469-22zm-97.558594 168.976563 38.105469 22-91.109375 157.804687-13.964844-8.0625-24.140625-13.9375zm-97.148437 177.410156 30.183594 17.425781-22.503907 18.171875c-.515625.339844-.992187.726562-1.433593 1.15625l-13.753907 11.101562zm123.621094 23.933594c0 5.511718-4.484376 10-10 10h-72.042969l12.507812-10.101563s-.003906-.003906-.007812-.003906c.949219-.769531 1.765625-1.699219 2.386719-2.777344l67.15625-116.316406zm0 0"/><path d="m10 252.496094c2.628906 0 5.210938-1.070313 7.070312-2.929688 1.859376-1.863281 2.929688-4.441406 2.929688-7.070312 0-2.632813-1.070312-5.210938-2.929688-7.070313-1.859374-1.859375-4.441406-2.929687-7.070312-2.929687s-5.210938 1.070312-7.070312 2.929687c-1.859376 1.859375-2.929688 4.4375-2.929688 7.070313 0 2.628906 1.070312 5.207031 2.929688 7.070312 1.859374 1.859375 4.441406 2.929688 7.070312 2.929688zm0 0"/></svg>
