<?xml version="1.0" encoding="UTF-8"?>
<svg xmlns="http://www.w3.org/2000/svg" fill="#e48257" id="Icons" viewBox="0 0 74 74" width="512" height="512"><path d="M3,30a1,1,0,0,1-.608-1.794l11-8.411a1,1,0,0,1,1.214,1.589l-11,8.41A.991.991,0,0,1,3,30Z"/><path d="M71,71.99H54.24a1,1,0,1,1,0-2H70V29a1,1,0,0,1,2,0V70.99A1,1,0,0,1,71,71.99Z"/><path d="M37.27,71.99h-2.9a1,1,0,1,1,0-2h2.9a1,1,0,0,1,0,2Z"/><path d="M27.37,71.99H3a1,1,0,0,1-1-1V29a1,1,0,0,1,2,0V69.99H27.37a1,1,0,1,1,0,2Z"/><path d="M47.24,71.99H44.27a1,1,0,1,1,0-2h2.97a1,1,0,0,1,0,2Z"/><path d="M37,54.429A13.246,13.246,0,0,1,28.551,51.4L2.363,29.771a1,1,0,0,1,1.274-1.542L29.824,49.855a11.285,11.285,0,0,0,14.35,0L70.362,28.229a1,1,0,1,1,1.274,1.542L45.447,51.4A13.242,13.242,0,0,1,37,54.429Z"/><path d="M3,71.99a1,1,0,0,1-.638-1.771l25.43-20.99a1,1,0,1,1,1.273,1.542L3.637,71.761A1,1,0,0,1,3,71.99Z"/><path d="M71,71.99a1,1,0,0,1-.636-.229L44.934,50.771a1,1,0,1,1,1.273-1.542l25.43,20.99A1,1,0,0,1,71,71.99Z"/><path d="M48.009,12.42a1,1,0,0,1-.607-.206L37,4.259,26.6,12.214a1,1,0,1,1-1.215-1.589l11.01-8.419a1,1,0,0,1,1.214,0l11.01,8.419a1,1,0,0,1-.608,1.8Z"/><path d="M71,30a.991.991,0,0,1-.606-.206l-11-8.41A1,1,0,0,1,60.607,19.8l11,8.411A1,1,0,0,1,71,30Z"/><path d="M60,39.08a1,1,0,0,1-1-1V12.42H15V38.08a1,1,0,0,1-2,0V11.42a1,1,0,0,1,1-1H60a1,1,0,0,1,1,1V38.08A1,1,0,0,1,60,39.08Z"/><path d="M42.579,36.995a11.62,11.62,0,0,1-4.729.923,10.338,10.338,0,0,1-7.121-2.307,8.039,8.039,0,0,1-2.594-6.333,9.754,9.754,0,0,1,2.691-7.039,9.04,9.04,0,0,1,6.813-2.8,8.3,8.3,0,0,1,5.992,2.138,7.107,7.107,0,0,1,2.234,5.357,7.245,7.245,0,0,1-1.648,5.06A5.356,5.356,0,0,1,40.08,33.8a1.86,1.86,0,0,1-1.312-.456,1.652,1.652,0,0,1-.543-1.139,3.484,3.484,0,0,1-2.95,1.595,3.267,3.267,0,0,1-2.494-1.052,4.06,4.06,0,0,1-.985-2.888,7.045,7.045,0,0,1,1.567-4.521,4.4,4.4,0,0,1,3.411-1.965A3.6,3.6,0,0,1,39.8,24.6l.221-.951h1.711l-1.48,6.458A7.584,7.584,0,0,0,40,31.7q0,.692.529.692a3.429,3.429,0,0,0,2.758-1.456A6.352,6.352,0,0,0,44.443,26.9a5.674,5.674,0,0,0-1.9-4.392,7.031,7.031,0,0,0-4.92-1.73,7.542,7.542,0,0,0-5.8,2.465,8.584,8.584,0,0,0-2.273,6.04,6.8,6.8,0,0,0,2.177,5.387,8.936,8.936,0,0,0,6.107,1.917,9.776,9.776,0,0,0,4.036-.75ZM39.465,26.011a2.827,2.827,0,0,0-4.877.365,6.211,6.211,0,0,0-1.024,3.431q0,2.585,2.067,2.585a2.685,2.685,0,0,0,1.883-.841,4.486,4.486,0,0,0,1.211-2.273Z"/><path d="M37.851,38.042a10.508,10.508,0,0,1-7.2-2.337,8.193,8.193,0,0,1-2.636-6.427,9.922,9.922,0,0,1,2.725-7.126,9.2,9.2,0,0,1,6.9-2.84,8.462,8.462,0,0,1,6.079,2.173,7.26,7.26,0,0,1,2.272,5.448,7.4,7.4,0,0,1-1.68,5.144,5.5,5.5,0,0,1-4.23,1.853,1.986,1.986,0,0,1-1.4-.49,1.753,1.753,0,0,1-.538-.919,3.562,3.562,0,0,1-2.871,1.409,3.4,3.4,0,0,1-2.585-1.093,4.2,4.2,0,0,1-1.019-2.973,7.2,7.2,0,0,1,1.594-4.6,4.545,4.545,0,0,1,3.509-2.013,3.86,3.86,0,0,1,2.962,1.076l.187-.807h1.968l-1.516,6.611a7.524,7.524,0,0,0-.247,1.568c0,.5.216.567.4.567a3.324,3.324,0,0,0,2.661-1.409A6.262,6.262,0,0,0,44.318,26.9a5.585,5.585,0,0,0-1.862-4.3,6.943,6.943,0,0,0-4.836-1.7,7.45,7.45,0,0,0-5.708,2.425,8.5,8.5,0,0,0-2.239,5.955,6.712,6.712,0,0,0,2.134,5.293,8.855,8.855,0,0,0,6.024,1.886,9.7,9.7,0,0,0,3.984-.739l.1-.045.844,1.379-.131.057A11.783,11.783,0,0,1,37.851,38.042Zm-.212-18.48a8.965,8.965,0,0,0-6.724,2.763,9.678,9.678,0,0,0-2.655,6.953,7.953,7.953,0,0,0,2.552,6.24,10.267,10.267,0,0,0,7.039,2.274,11.63,11.63,0,0,0,4.545-.854l-.579-.947a10.063,10.063,0,0,1-3.986.716,9.092,9.092,0,0,1-6.19-1.949,6.949,6.949,0,0,1-2.218-5.48,8.735,8.735,0,0,1,2.306-6.125,7.689,7.689,0,0,1,5.891-2.5,7.18,7.18,0,0,1,5,1.763A5.819,5.819,0,0,1,44.568,26.9a6.5,6.5,0,0,1-1.18,4.119,3.565,3.565,0,0,1-2.857,1.5c-.244,0-.653-.106-.653-.817a7.747,7.747,0,0,1,.253-1.624l1.445-6.3H40.122l-.258,1.11-.161-.206A3.5,3.5,0,0,0,36.774,23.5a4.312,4.312,0,0,0-3.314,1.919,6.953,6.953,0,0,0-1.539,4.443,3.96,3.96,0,0,0,.951,2.8,3.164,3.164,0,0,0,2.4,1.013,3.383,3.383,0,0,0,2.849-1.544l.2-.282.025.346a1.512,1.512,0,0,0,.5,1.056,1.744,1.744,0,0,0,1.226.424,5.258,5.258,0,0,0,4.044-1.771,7.162,7.162,0,0,0,1.616-4.976,7.019,7.019,0,0,0-2.2-5.267A8.218,8.218,0,0,0,37.639,19.562ZM35.631,32.517c-1.454,0-2.192-.912-2.192-2.71a6.36,6.36,0,0,1,1.043-3.5,2.952,2.952,0,0,1,5.087-.366l.03.045-.752,3.319A4.637,4.637,0,0,1,37.6,31.641,2.817,2.817,0,0,1,35.631,32.517Zm1.278-7.6a2.747,2.747,0,0,0-2.216,1.529,6.107,6.107,0,0,0-1,3.363c0,1.655.635,2.46,1.942,2.46a2.568,2.568,0,0,0,1.8-.807A4.379,4.379,0,0,0,38.6,29.25l.728-3.214A2.732,2.732,0,0,0,36.909,24.915Z"/></svg>
