<?xml version="1.0" encoding="iso-8859-1"?>
<!-- Generator: Adobe Illustrator 19.0.0, SVG Export Plug-In . SVG Version: 6.00 Build 0)  -->
<svg version="1.1" id="Capa_1" xmlns="http://www.w3.org/2000/svg" xmlns:xlink="http://www.w3.org/1999/xlink" x="0px" y="0px" fill="#e48257"
	 viewBox="0 0 512.008 512.008" style="enable-background:new 0 0 512.008 512.008;" xml:space="preserve">
<g>
	<g>
		<g>
			<path d="M512.008,20.546c0.001-2.264-0.897-4.435-2.498-6.035s-3.772-2.499-6.035-2.498h-60.109
				c-24.322,0.054-48.623-1.463-72.75-4.542c-26.775-3.408-61.796-7.467-76.613-7.467c-31.942,0-82.492,80.133-94.058,114.2
				c-10.451,28.886-17.407,58.919-20.721,89.458c-0.339,7.823,2.561,15.441,8.017,21.058c5.672,5.861,13.481,9.169,21.637,9.167
				c8.088-0.061,15.745-3.654,20.961-9.834c2.549,4.916,6.346,9.075,11.01,12.06c5.067,3.102,10.914,4.695,16.854,4.592
				c7.761-0.268,15.393-2.06,22.461-5.276c0.602,0.691,1.097,1.452,1.759,2.101c13.592,13.2,35.216,13.2,48.808,0l18.429-18.075
				c11.138-10.917,39.058-31.917,59.446-47.25c4.788-3.606,9.097-6.86,12.93-9.761c29.958-1.309,59.261-9.198,85.828-23.106
				c0.343-0.233,0.668-0.492,0.972-0.775c0.498-0.318,0.962-0.687,1.382-1.102c0.646-0.87,1.212-1.797,1.692-2.768
				c0.182-0.576,0.302-1.17,0.357-1.771c0.109-0.388,0.189-0.783,0.239-1.183V20.663l-0.012-0.058L512.008,20.546z M281.921,189.196
				c-6.519,6.348-10.188,15.067-10.171,24.166c0.002,2.299,0.237,4.591,0.702,6.843c-6.926,3.793-15.176,4.324-22.531,1.449
				c-5.364-4.625-8.515-11.308-8.67-18.389l1.245-3.403c10.345-31.709,25.909-61.469,46.05-88.055
				c7.324-1.259,14.521-3.166,21.508-5.699c-10.935,25.035-18.735,51.325-23.221,78.272L281.921,189.196z M333.809,94.38
				c2.547-1.659,4.983-3.48,7.294-5.454c6.367,6.711,11.388,14.581,14.788,23.183c-5.719,8.024-11.958,15.664-18.679,22.869
				l-28.832,28.271C314.905,139.619,323.411,116.581,333.809,94.38z M494.942,126.403c-23.806,11.885-49.927,18.41-76.525,19.118
				c-0.346,0.049-0.689,0.121-1.026,0.215c-1.141,0.101-2.241,0.479-3.203,1.103c-0.308,0.126-0.607,0.27-0.897,0.433
				c-4.209,3.217-9.333,7.075-14.942,11.292c-21.921,16.492-49.204,37.008-61.138,48.708l-18.429,18.075
				c-6.941,6.725-17.967,6.725-24.908,0c-3.234-3.148-5.058-7.47-5.058-11.983s1.824-8.835,5.058-11.983l55.287-54.217
				c13.708-15.654,26.382-32.183,37.942-49.483c2.651-3.898,1.64-9.207-2.258-11.858c-3.898-2.651-9.207-1.64-11.858,2.258
				c-0.071,0.107-2.3,3.379-5.663,8.166c-5.486-9.733-12.516-18.511-20.816-25.991c-3.131-2.81-7.856-2.88-11.069-0.164
				l-0.162,0.119c-0.287,0.183-0.562,0.385-0.823,0.603c-0.281,0.387-0.528,0.798-0.737,1.228c-0.202,0.214-0.393,0.438-0.572,0.672
				c-2.958,3.522-6.562,6.446-10.617,8.617c-12.199,7.335-25.738,12.162-39.825,14.2c-0.354,0.099-0.702,0.223-1.039,0.37
				c-1.237,0.214-2.371,0.825-3.229,1.742c-0.354,0.236-0.69,0.499-1.003,0.788c-28.417,33.308-43.658,75.392-50.983,95.617
				l-1.132,3.101c-0.415,0.747-0.712,1.553-0.88,2.391c-4.181,11.464-9.412,17.283-15.558,17.283
				c-3.513,0.031-6.884-1.382-9.325-3.908c-2.22-2.283-3.406-5.377-3.279-8.558c3.25-28.906,9.907-57.325,19.833-84.667
				c13.35-39.317,61.396-102.617,77.896-102.617c10.863,0,37.304,2.6,74.446,7.333c24.848,3.144,49.871,4.705,74.917,4.675h51.575
				V126.403z"/>
			<path d="M76.8,358.404c-42.415,0-76.8,34.385-76.8,76.8c0.048,42.396,34.404,76.752,76.8,76.8c42.415,0,76.8-34.384,76.8-76.8
				S119.215,358.404,76.8,358.404z M102.4,489.092c-16.177,7.795-35.023,7.795-51.2,0v0v-7.637
				c1.521-12.687,12.879-21.849,25.6-20.65c6.797-0.124,13.405,2.234,18.587,6.633c4.326,3.381,6.901,8.528,7.013,14.017V489.092z
				 M59.733,426.671c0-9.426,7.641-17.067,17.067-17.067s17.067,7.641,17.067,17.067s-7.641,17.067-17.067,17.067
				C67.379,443.727,59.744,436.092,59.733,426.671z M119.002,477.436c-1.105-8.969-5.58-17.182-12.518-22.973
				c-1.689-1.433-3.491-2.728-5.388-3.872c13.2-13.37,13.115-34.894-0.191-48.159c-13.306-13.265-34.83-13.284-48.159-0.043
				c-13.329,13.241-13.453,34.765-0.277,48.159c-9.753,5.76-16.337,15.663-17.876,26.884c-17.102-17.07-22.229-42.766-12.987-65.092
				s31.03-36.881,55.194-36.868c24.165-0.012,45.954,14.543,55.195,36.871S136.107,460.367,119.002,477.436z"/>
			<path d="M247.467,264.538c-42.415,0-76.8,34.385-76.8,76.8s34.385,76.8,76.8,76.8s76.8-34.385,76.8-76.8
				C324.219,298.942,289.862,264.585,247.467,264.538z M273.067,395.225c-16.177,7.795-35.023,7.795-51.2,0v0v-7.637
				c1.521-12.687,12.878-21.849,25.6-20.65c6.797-0.124,13.405,2.234,18.587,6.633c4.326,3.381,6.901,8.528,7.013,14.017V395.225z
				 M230.4,332.804c0-9.426,7.641-17.067,17.067-17.067s17.067,7.641,17.067,17.067c0,9.426-7.641,17.067-17.067,17.067
				C238.045,349.86,230.411,342.225,230.4,332.804z M289.669,383.569L289.669,383.569c-1.105-8.969-5.581-17.182-12.519-22.973
				c-1.689-1.433-3.491-2.728-5.388-3.872c13.2-13.37,13.115-34.894-0.191-48.159c-13.306-13.265-34.83-13.284-48.159-0.043
				c-13.33,13.241-13.453,34.765-0.276,48.159c-9.753,5.76-16.337,15.663-17.876,26.884c-17.102-17.077-22.229-42.777-12.988-65.109
				s31.029-36.895,55.197-36.893c24.169,0.001,45.955,14.566,55.194,36.899S306.773,366.494,289.669,383.569z"/>
			<path d="M435.2,358.404c-42.415,0-76.8,34.385-76.8,76.8s34.385,76.8,76.8,76.8s76.8-34.384,76.8-76.8
				C511.952,392.809,477.596,358.452,435.2,358.404z M460.8,489.091c-16.176,7.796-35.024,7.796-51.2,0v-7.636
				c1.52-12.687,12.878-21.849,25.6-20.65c6.796-0.122,13.404,2.232,18.592,6.625c4.322,3.387,6.895,8.535,7.008,14.025V489.091z
				 M418.133,426.671c0-9.426,7.641-17.067,17.067-17.067s17.067,7.641,17.067,17.067s-7.641,17.067-17.067,17.067
				C425.779,443.725,418.146,436.092,418.133,426.671z M477.402,477.434L477.402,477.434c-1.104-8.969-5.579-17.183-12.519-22.972
				c-1.69-1.432-3.493-2.725-5.39-3.869c13.202-13.369,13.119-34.894-0.186-48.16c-13.305-13.267-34.83-13.287-48.161-0.046
				s-13.455,34.766-0.278,48.16c-9.752,5.76-16.336,15.662-17.874,26.883c-17.103-17.077-22.229-42.777-12.989-65.109
				c9.241-22.332,31.029-36.895,55.197-36.894c24.169,0.001,45.955,14.566,55.194,36.899
				C499.636,434.659,494.507,460.359,477.402,477.434z"/>
		</g>
	</g>
</g>
<g>
</g>
<g>
</g>
<g>
</g>
<g>
</g>
<g>
</g>
<g>
</g>
<g>
</g>
<g>
</g>
<g>
</g>
<g>
</g>
<g>
</g>
<g>
</g>
<g>
</g>
<g>
</g>
<g>
</g>
</svg>
