<?xml version="1.0" encoding="iso-8859-1"?>
<!-- Generator: Adobe Illustrator 16.0.0, SVG Export Plug-In . SVG Version: 6.00 Build 0)  -->
<!DOCTYPE svg PUBLIC "-//W3C//DTD SVG 1.1//EN" "http://www.w3.org/Graphics/SVG/1.1/DTD/svg11.dtd">
<svg version="1.1" id="Capa_1" xmlns="http://www.w3.org/2000/svg" xmlns:xlink="http://www.w3.org/1999/xlink" x="0px" y="0px"  fill="#e48257"
	 width="480.486px" height="480.486px" viewBox="0 0 480.486 480.486" style="enable-background:new 0 0 480.486 480.486;"
	 xml:space="preserve">
<g>
	<g>
		<path d="M202.47,417.271c-11.883,0-21.543,9.663-21.543,21.541c0,11.882,9.661,21.561,21.543,21.561
			c11.887,0,21.558-9.668,21.558-21.561C224.021,426.934,214.357,417.271,202.47,417.271z M202.47,453.862
			c-8.295,0-15.036-6.754-15.036-15.051c0-8.293,6.749-15.041,15.036-15.041c8.294,0,15.048,6.748,15.048,15.041
			C217.518,447.108,210.764,453.862,202.47,453.862z"/>
		<path d="M209.665,428.376h-14.378c-1.792,0-3.248,1.457-3.248,3.255v14.381c0,1.793,1.455,3.255,3.248,3.255h14.378
			c1.792,0,3.247-1.462,3.247-3.255v-14.381C212.912,429.833,211.45,428.376,209.665,428.376z M206.41,442.757h-7.876v-7.876h7.876
			V442.757z"/>
		<path d="M114.707,411.73h175.54c1.793,0,3.255-1.458,3.255-3.255V71.78c0-1.803-1.462-3.255-3.255-3.255h-175.54
			c-1.8,0-3.255,1.452-3.255,3.255v336.695C111.452,410.272,112.914,411.73,114.707,411.73z M117.962,75.035h169.046v330.19H117.962
			V75.035z"/>
		<path d="M183.089,53.144h38.798c1.792,0,3.255-1.455,3.255-3.247c0-1.8-1.462-3.255-3.255-3.255h-38.798
			c-1.792,0-3.248,1.455-3.248,3.255C179.842,51.689,181.297,53.144,183.089,53.144z"/>
		<path d="M136.014,479.15l132.855,0.65h0.03c26.537,0,48.135-21.592,48.135-48.129V49.889c0-27.477-30.093-48.784-55.98-48.784
			H136.044c-26.535,0-48.126,21.592-48.126,48.137v381.785C87.926,457.559,109.502,479.15,136.014,479.15z M100.542,49.241
			c0-19.585,15.927-35.513,35.502-35.513h125.004c19.52,0,43.351,16.687,43.351,36.168v381.785c0,19.581-15.93,35.51-35.5,35.51
			l-132.855-0.654c-19.583,0-35.502-15.935-35.502-35.511V49.241z"/>
		<circle cx="162.833" cy="49.896" r="3.468"/>
		<circle cx="202.484" cy="28.226" r="3.468"/>
		<circle cx="371.495" cy="107.709" r="6.177"/>
		<path d="M371.495,130.746c3.417,0,6.185,2.77,6.185,6.185c0,3.417-2.768,6.185-6.185,6.185c-3.412,0-6.186-2.768-6.186-6.185
			C365.31,133.516,368.083,130.746,371.495,130.746z"/>
		<path d="M371.495,71.519c1.803,0,3.255-1.462,3.255-3.255V52.542c0-1.8-1.463-3.255-3.255-3.255c-1.793,0-3.245,1.455-3.245,3.255
			v15.722C368.25,70.056,369.713,71.519,371.495,71.519z"/>
		<path d="M365.233,480.486h12.513c7.733,0,14.015-6.287,14.015-14.006v-68.202c0.473-0.568,0.808-1.279,0.808-2.076
			c0-0.798-0.325-1.509-0.808-2.077V42.092c0.473-0.569,0.808-1.272,0.808-2.08c0-0.797-0.325-1.508-0.808-2.077V14.008
			C391.761,6.279,385.475,0,377.746,0h-12.513c-7.733,0-14.015,6.279-14.015,14.008v452.463
			C351.219,474.199,357.505,480.486,365.233,480.486z M363.832,14.008c0-0.767,0.625-1.384,1.401-1.384h12.513
			c0.771,0,1.396,0.625,1.396,1.384V36.76h-15.311V14.008L363.832,14.008z M363.832,43.268h15.311v349.68h-15.311V43.268z
			 M363.832,399.446h15.311v67.024c0,0.767-0.625,1.387-1.396,1.387h-12.513c-0.776,0-1.401-0.625-1.401-1.387V399.446
			L363.832,399.446z"/>
	</g>
</g>
<g>
</g>
<g>
</g>
<g>
</g>
<g>
</g>
<g>
</g>
<g>
</g>
<g>
</g>
<g>
</g>
<g>
</g>
<g>
</g>
<g>
</g>
<g>
</g>
<g>
</g>
<g>
</g>
<g>
</g>
</svg>
