<svg fill="#e48257" height="480pt" viewBox="0 0 480 480" width="480pt" xmlns="http://www.w3.org/2000/svg"><path d="m0 0v400h269.953125c1.335937 4.800781 2.023437 9.753906 2.046875 14.734375v1.265625h-16v64h176v-64h-16.113281l.050781-6.398438c.035156-3.3125.753906-6.582031 2.109375-9.601562h61.953125v-400zm416 464h-144v-32h144zm-128-48v-1.265625c-.007812-11.707031-2.863281-23.238281-8.320312-33.597656l-8.351563-15.832031-27.503906-75.199219c-.160157-.433594-.355469-.851563-.585938-1.25-1.601562-2.796875-1.367187-6.28125.59375-8.839844 1.960938-2.558594 5.265625-3.691406 8.382813-2.871094 2.050781.539063 3.796875 1.878907 4.847656 3.71875l17.082031 29.601563c3.621094 6.269531 11.003907 9.328125 17.996094 7.453125 6.996094-1.875 11.859375-8.210938 11.859375-15.453125v-110.464844c0-4.417969 3.582031-8 8-8s8 3.582031 8 8v72c-.015625 4.171875 3.179688 7.652344 7.335938 8l66.65625 5.550781c12.402343 1.097657 21.933593 11.449219 22.007812 23.898438v64.863281c.015625 4.734375-1.378906 9.367188-4 13.3125l-5.320312 8c-4.328126 6.488281-6.664063 14.101562-6.710938 21.902344l-.082031 6.472656zm176-32h-36.175781c2.734375-5.496094 4.164062-11.550781 4.175781-17.6875v-64.863281c-.121094-20.753907-16.007812-38.011719-36.679688-39.847657l-59.320312-4.960937v-64.640625c0-13.253906-10.746094-24-24-24s-24 10.746094-24 24v110.464844l-17.070312-29.601563c-6.667969-11.097656-20.933594-14.910156-32.246094-8.613281s-15.59375 20.425781-9.675782 31.941406l27.480469 75.097656c.125.335938.269531.664063.441407.984376l6.175781 11.726562h-247.105469v-304h448zm-448-320v-48h448v48zm0 0"/><path d="m32 32h16v16h-16zm0 0"/><path d="m64 32h16v16h-16zm0 0"/><path d="m96 32h16v16h-16zm0 0"/><path d="m144 144.992188 21.519531-18.398438-10.398437-12.160156-11.121094 9.496094v-11.929688h-96v96h96zm-80 47.007812v-64h64v9.601562l-31.9375 27.351563-18.527344-18.3125-11.199218 11.382813 28.992187 28.648437 32.671875-27.976563v33.304688zm0 0"/><path d="m144 272.992188 21.519531-18.398438-10.398437-12.160156-11.121094 9.496094v-11.929688h-96v96h96zm-80 47.007812v-64h64v9.601562l-31.9375 27.351563-18.527344-18.3125-11.199218 11.382813 28.992187 28.648437 32.671875-27.976563v33.304688zm0 0"/><path d="m240 112h32v16h-32zm0 0"/><path d="m288 112h144v16h-144zm0 0"/><path d="m240 144h192v16h-192zm0 0"/><path d="m240 184h32v16h-32zm0 0"/><path d="m352 184h80v16h-80zm0 0"/><path d="m352 216h80v16h-80zm0 0"/><path d="m240 216h32v16h-32zm0 0"/></svg>
